# xmcd
#
# Track frame offsets: 
#        150
#        14739
#        25483
#        39355
#        48991
#        60767
#        77090
#        90243
#        104344
#        117849
#        129767
#        143802
#        156907
#        177704
#        194720
#        212054
#
# Disc length: 2996 seconds
#
# Revision: 1
# Processed by: cddbd v1.5.2PL0 Copyright (c) Steve Scherf et al.
# Submitted via: ExactAudioCopy v0.95a5
#
DISCID=d60bb210
DTITLE=Various Artist - Atlantic Unearthed: Soul Brothers
DYEAR=2006
DGENRE=Soul
TTITLE0=Wilson Pickett - Can't Stop A Man In Love
TTITLE1=Bobby Womack - How Does It Feel
TTITLE2=Sam and Dave - You Left The Water Running
TTITLE3=Arthur Conley - Rome (Wasn't Built In A Day)
TTITLE4=Percy Wiggins - Book Of Memories
TTITLE5=The Soul Clan - That's How It Feels
TTITLE6=Otis Redding - I Love You More Than Words Can Say
TTITLE7=Percy Sledge - Baby, Baby, Baby
TTITLE8=James Carr - Hold On
TTITLE9=Otis Clay - Pouring Water On A Drowning Man
TTITLE10=Mighty Sam - Lovebones
TTITLE11=Darrell Banks - The Love Of My Woman
TTITLE12=Walter Jackson - Coldest Days Of My Life
TTITLE13=R.B. Greaves - Whiter Shade Of Pale
TTITLE14=Carl Hall - Change With The Seasons
TTITLE15=Donny Hathaway - What A Woman Really Means
EXTD=
EXTT0=
EXTT1=
EXTT2=
EXTT3=
EXTT4=
EXTT5=
EXTT6=
EXTT7=
EXTT8=
EXTT9=
EXTT10=
EXTT11=
EXTT12=
EXTT13=
EXTT14=
EXTT15=
PLAYORDER=
